<svg xmlns="http://www.w3.org/2000/svg" fill-rule="evenodd" viewBox="0 0 100 100">
    <path d="M65.108 40.122a1.53 1.53 0 0 0 .021-.255c0-5.925-3.523-11.031-8.578-13.367v-9.922a1.5 1.5 0 0 0-1.5-1.5h-9.389a1.5 1.5 0 0 0-1.5 1.5v9.999c-4.773 2.314-8.13 7.223-8.488 13.2-1.352 22.776-8.5 29.983-8.572 30.054l1.035 1.086v1.5h44.525c.62 0 1.173-.385 1.396-.964a1.507 1.507 0 0 0-.396-1.654c-.081-.073-8.153-7.638-8.554-29.677zM47.163 18.078h6.389v7.407a14.703 14.703 0 0 0-3.147-.347c-1.118 0-2.199.139-3.242.379v-7.439zm-16.059 51.34c2.591-3.99 6.572-12.72 7.566-29.462.403-6.737 5.448-11.818 11.734-11.818 6.351 0 11.54 5.078 11.72 11.388a1.544 1.544 0 0 0-.022.281c.238 16.646 4.636 25.609 7.389 29.61H31.104zm27.892 4.198a1.5 1.5 0 0 0-1.5 1.5 6.811 6.811 0 0 1-6.803 6.804 6.811 6.811 0 0 1-6.803-6.804 1.5 1.5 0 1 0-3 0c0 5.406 4.397 9.804 9.803 9.804 5.406 0 9.803-4.397 9.803-9.804a1.5 1.5 0 0 0-1.5-1.5zM20.653 60.729c-3.299-2.436-5.192-6.181-5.192-10.272 0-3.911 1.756-7.549 4.818-9.981a1.5 1.5 0 1 0-1.866-2.348 15.666 15.666 0 0 0-5.952 12.33c0 4.979 2.396 9.723 6.41 12.687a1.5 1.5 0 1 0 1.782-2.416z"/>
    <path d="M5.777 50.456a22.44 22.44 0 0 1 7.74-16.951 1.5 1.5 0 0 0-1.967-2.265 25.44 25.44 0 0 0-8.773 19.217c0 7.604 3.374 14.759 9.255 19.629a1.499 1.499 0 1 0 1.913-2.31c-5.191-4.3-8.168-10.612-8.168-17.32zm75.816-11.825a1.5 1.5 0 0 0-1.869 2.346 12.7 12.7 0 0 1 4.819 9.983c0 4.089-1.895 7.833-5.198 10.271a1.5 1.5 0 1 0 1.782 2.414c4.019-2.966 6.417-7.708 6.417-12.686a15.684 15.684 0 0 0-5.951-12.328z"/>
    <path d="M88.448 31.742a1.5 1.5 0 0 0-1.967 2.265 22.441 22.441 0 0 1 7.742 16.951c0 6.711-2.979 13.023-8.171 17.318a1.5 1.5 0 1 0 1.912 2.312c5.884-4.868 9.259-12.022 9.259-19.631a25.436 25.436 0 0 0-8.775-19.215z"/>
</svg>
